<svg xmlns="http://www.w3.org/2000/svg" width="102.289" height="64.841" viewBox="0 0 102.289 64.841">
  <path id="cloudd" d="M81.815,16.853A20.648,20.648,0,0,0,79.369,17,17.113,17.113,0,0,0,63.046,4.91a16.8,16.8,0,0,0-5.487.916,22.167,22.167,0,0,0-42.286,9.321,21.84,21.84,0,0,0,.665,5.334A18.768,18.768,0,0,0,18.685,57.8h63.13a20.475,20.475,0,0,0,0-40.949Zm0,37.537H18.685A15.345,15.345,0,0,1,18.227,23.7a1.707,1.707,0,0,0,1.56-2.278A18.749,18.749,0,0,1,55.032,8.63a1.705,1.705,0,0,0,2.313.956,13.616,13.616,0,0,1,19.08,9.682,1.705,1.705,0,0,0,2.01,1.336,17.307,17.307,0,0,1,3.38-.338,17.062,17.062,0,1,1,0,34.124Zm0,0" transform="translate(0 7.039)" fill="#fff"/>
</svg>
