<svg id="rain-blue" xmlns="http://www.w3.org/2000/svg" width="152.519" height="135.149" viewBox="0 0 152.519 135.149">
  <g id="Group_2" data-name="Group 2" transform="translate(0 0)">
    <g id="Group_1" data-name="Group 1">
      <path id="Path_1" data-name="Path 1" d="M122.405,57.138a29.984,29.984,0,0,0-8.6,1.242,44.993,44.993,0,0,0-85.936,5.459c-.363-.015-.727-.024-1.091-.024a26.776,26.776,0,1,0,0,53.551H122.4a30.114,30.114,0,0,0,0-60.228Zm0,51.292H26.776a17.839,17.839,0,1,1,3.753-35.284,4.467,4.467,0,0,0,5.3-3.435c.017-.078.025-.156.038-.234a4.544,4.544,0,0,0,.121-.554,36.048,36.048,0,0,1,70.5-4.079,4.458,4.458,0,0,0,6.436,3.465,20.953,20.953,0,0,1,9.481-2.235,21.178,21.178,0,0,1,0,42.356Z" transform="translate(0 -29.156)" fill="#0082ff"/>
    </g>
  </g>
  <g id="Group_4" data-name="Group 4" transform="translate(28.175 94.461)">
    <g id="Group_3" data-name="Group 3" transform="translate(0 0)">
      <path id="Path_2" data-name="Path 2" d="M99.052,346.257a4.468,4.468,0,0,0-4.468,4.468v17.487a4.468,4.468,0,0,0,8.937,0V350.725A4.468,4.468,0,0,0,99.052,346.257Z" transform="translate(-94.584 -346.257)" fill="#0082ff"/>
    </g>
  </g>
  <g id="Group_6" data-name="Group 6" transform="translate(67.497 94.461)">
    <g id="Group_5" data-name="Group 5" transform="translate(0 0)">
      <path id="Path_3" data-name="Path 3" d="M231.052,346.257a4.468,4.468,0,0,0-4.468,4.468v11.529a4.468,4.468,0,1,0,8.937,0V350.725A4.469,4.469,0,0,0,231.052,346.257Z" transform="translate(-226.584 -346.257)" fill="#0082ff"/>
    </g>
  </g>
  <g id="Group_8" data-name="Group 8" transform="translate(87.559 94.428)">
    <g id="Group_7" data-name="Group 7">
      <path id="Path_4" data-name="Path 4" d="M298.4,346.148a4.468,4.468,0,0,0-4.468,4.468V368.1a4.468,4.468,0,1,0,8.937,0V350.616A4.468,4.468,0,0,0,298.4,346.148Z" transform="translate(-293.932 -346.148)" fill="#0082ff"/>
    </g>
  </g>
  <g id="Group_10" data-name="Group 10" transform="translate(48.133 107.237)">
    <g id="Group_9" data-name="Group 9" transform="translate(0 0)">
      <path id="Path_5" data-name="Path 5" d="M166.047,389.148a4.468,4.468,0,0,0-4.468,4.468v18.975a4.468,4.468,0,0,0,8.937,0V393.616A4.468,4.468,0,0,0,166.047,389.148Z" transform="translate(-161.579 -389.148)" fill="#0082ff"/>
    </g>
  </g>
  <g id="Group_12" data-name="Group 12" transform="translate(107.871 107.237)">
    <g id="Group_11" data-name="Group 11" transform="translate(0 0)">
      <path id="Path_6" data-name="Path 6" d="M366.587,389.148a4.468,4.468,0,0,0-4.468,4.468v18.975a4.468,4.468,0,0,0,8.937,0V393.616A4.468,4.468,0,0,0,366.587,389.148Z" transform="translate(-362.119 -389.148)" fill="#0082ff"/>
    </g>
  </g>
</svg>
