<svg xmlns="http://www.w3.org/2000/svg" width="77.14" height="79.5" viewBox="0 0 77.14 79.5">
  <path id="snoww" d="M76.229,47.721a1.829,1.829,0,0,0-1.491-.153l-11,3.652-6.7-3.871,7.592-2.674a1.823,1.823,0,0,0,.977-.811l.072-.126a1.829,1.829,0,0,0-2.16-2.65l-11,3.651-6-3.461V38.221l6-3.463,11,3.651a1.829,1.829,0,0,0,2.16-2.65l-.071-.127a1.838,1.838,0,0,0-.977-.811l-7.592-2.673,6.7-3.871,11,3.652a1.829,1.829,0,0,0,2.16-2.65l-.073-.126a1.832,1.832,0,0,0-.976-.811l-7.592-2.674,3.77-2.177a2.65,2.65,0,1,0-2.65-4.59l-3.77,2.177,1.481-7.912a1.828,1.828,0,0,0-.213-1.251l-.073-.126a1.829,1.829,0,0,0-3.375.546L61.09,23.687l-6.7,3.87,1.482-7.911a1.831,1.831,0,0,0-.213-1.251l-.072-.126a1.829,1.829,0,0,0-3.375.546L49.87,30.165l-4.3,2.482-4.347-2.172v-5.3l8.661-7.7a1.829,1.829,0,0,0-1.215-3.2h-.144a1.832,1.832,0,0,0-1.19.44L41.225,19.96V12.221l8.661-7.7a1.83,1.83,0,0,0-1.215-3.2h-.144a1.832,1.832,0,0,0-1.19.44L41.225,7V2.65a2.65,2.65,0,0,0-5.3,0V7L29.814,1.766a1.832,1.832,0,0,0-1.19-.44h-.146a1.829,1.829,0,0,0-1.215,3.2l8.662,7.7V19.96l-6.111-5.238a1.832,1.832,0,0,0-1.19-.44h-.146a1.829,1.829,0,0,0-1.215,3.2l8.662,7.7v5.3l-4.349,2.174-4.3-2.482-2.337-11.35a1.829,1.829,0,0,0-3.375-.546l-.072.126a1.824,1.824,0,0,0-.213,1.251l1.482,7.911-6.7-3.87L13.72,12.34a1.829,1.829,0,0,0-3.375-.546l-.073.126a1.822,1.822,0,0,0-.213,1.251l1.481,7.912L7.77,18.9a2.65,2.65,0,1,0-2.65,4.59l3.77,2.177L1.3,28.345a1.824,1.824,0,0,0-.976.811l-.073.126a1.829,1.829,0,0,0,2.16,2.65l11-3.651,6.7,3.87-7.592,2.674a1.823,1.823,0,0,0-.977.811l-.072.126a1.829,1.829,0,0,0,2.16,2.65l11-3.652,6,3.461v3.059l-6,3.463-11-3.651a1.829,1.829,0,0,0-2.16,2.65l.072.126a1.838,1.838,0,0,0,.977.811l7.592,2.673-6.7,3.871-11-3.652a1.829,1.829,0,0,0-2.16,2.65l.073.126a1.832,1.832,0,0,0,.976.811L8.893,53.83l-3.77,2.177a2.65,2.65,0,1,0,2.65,4.59l3.77-2.177-1.481,7.912a1.828,1.828,0,0,0,.213,1.251l.073.126a1.829,1.829,0,0,0,3.375-.546l2.337-11.35,6.7-3.87-1.482,7.911A1.831,1.831,0,0,0,21.5,61.1l.072.126a1.829,1.829,0,0,0,3.375-.546l2.337-11.35,4.3-2.482,4.346,2.172v5.3l-8.662,7.7a1.829,1.829,0,0,0,1.215,3.2h.144a1.832,1.832,0,0,0,1.19-.44l6.113-5.238V67.28l-8.662,7.7a1.829,1.829,0,0,0,1.215,3.2h.144a1.832,1.832,0,0,0,1.19-.44L35.925,72.5V76.85a2.65,2.65,0,0,0,5.3,0V72.5l6.111,5.238a1.832,1.832,0,0,0,1.19.44h.144a1.829,1.829,0,0,0,1.215-3.2l-8.66-7.7V59.541l6.111,5.238a1.832,1.832,0,0,0,1.19.44h.144a1.829,1.829,0,0,0,1.215-3.2l-8.66-7.7v-5.3l4.348-2.174,4.3,2.482,2.337,11.35a1.829,1.829,0,0,0,3.375.546l.072-.126a1.824,1.824,0,0,0,.214-1.251l-1.482-7.911,6.7,3.87,2.337,11.35a1.829,1.829,0,0,0,3.375.546l.073-.126a1.826,1.826,0,0,0,.213-1.251l-1.482-7.912,3.77,2.177A2.65,2.65,0,1,0,72.029,56l-3.77-2.177,7.592-2.674a1.824,1.824,0,0,0,.976-.811l.073-.126a1.827,1.827,0,0,0-.67-2.5Zm-35-5.321-2.65,1.325L35.925,42.4V37.1l2.65-1.325,2.65,1.325Zm0,0" transform="translate(-0.004 0)" fill="#fff"/>
</svg>
