<svg id="sunn" xmlns="http://www.w3.org/2000/svg" width="72.5" height="72.5" viewBox="0 0 72.5 72.5">
  <g id="Group_15" data-name="Group 15">
    <path id="Path_8" data-name="Path 8" d="M70.376,34.126H58.749a22.5,22.5,0,0,0-5.095-12.277l8.228-8.228a2.124,2.124,0,0,0-3-3l-8.228,8.228a22.5,22.5,0,0,0-12.276-5.095V2.124a2.124,2.124,0,0,0-4.248,0V13.751A22.5,22.5,0,0,0,21.85,18.846l-8.228-8.229a2.124,2.124,0,1,0-3,3l8.228,8.229a22.5,22.5,0,0,0-5.095,12.277H2.124a2.124,2.124,0,0,0,0,4.248H13.751A22.5,22.5,0,0,0,18.846,50.65l-8.228,8.228a2.124,2.124,0,1,0,3,3l8.228-8.228a22.5,22.5,0,0,0,12.277,5.095V70.376a2.124,2.124,0,0,0,4.248,0V58.749a22.5,22.5,0,0,0,12.276-5.095l8.228,8.228a2.124,2.124,0,0,0,3-3l-8.228-8.228a22.5,22.5,0,0,0,5.095-12.276H70.376a2.124,2.124,0,1,0,0-4.248ZM54.6,36.255a18.352,18.352,0,1,1,0-.009s0,0,0,0S54.6,36.253,54.6,36.255Z" fill="#fff"/>
  </g>
</svg>
